<svg width="44" height="44" viewBox="0 0 44 44" fill="none" xmlns="http://www.w3.org/2000/svg">
<path fill-rule="evenodd" clip-rule="evenodd" d="M19.1479 11.7002C19.2318 11.4799 19.4648 11.2987 19.9309 10.9363L20.8255 10.2406C21.5233 9.69803 21.8722 9.42673 22.1651 9.42925C22.4199 9.43144 22.6601 9.54889 22.8182 9.74871C22.9813 9.95473 22.9981 10.3315 22.9998 11.0448C28.6064 11.55 33 16.2619 33 22C33 28.0751 28.0751 33 22 33C15.9249 33 11 28.0751 11 22C11 18.8826 12.2981 16.0666 14.3806 14.0662C14.7789 13.6836 15.4119 13.6963 15.7945 14.0946C16.1771 14.4929 16.1644 15.126 15.7661 15.5086C14.0599 17.1475 13 19.4491 13 22C13 26.9706 17.0294 31 22 31C26.9706 31 31 26.9706 31 22C31 17.3673 27.4997 13.5521 22.9994 13.0549C22.9961 13.7039 22.9735 14.055 22.8182 14.2512C22.6601 14.451 22.4199 14.5685 22.1651 14.5707C21.8722 14.5732 21.5233 14.3019 20.8256 13.7593L20.8256 13.7593L19.9309 13.0636C19.4648 12.7012 19.2318 12.52 19.1479 12.2997C19.0744 12.1066 19.0744 11.8933 19.1479 11.7002ZM20.4588 25.6317V19H19.2196L17.5 19.887V21.4246L18.9836 20.6558V25.6317H20.4588ZM24.3926 21.281C24.0639 21.281 23.7267 21.357 23.4401 21.5006L23.5497 20.3432H26.1797V19H22.1672L21.8722 22.8861L23.1366 23.1564C23.3221 22.8016 23.6761 22.6073 24.0723 22.6073C24.6792 22.6073 25.0333 22.9452 25.0333 23.5113C25.0333 24.0688 24.6624 24.4068 24.0723 24.4068C23.6171 24.4068 23.2462 24.1449 23.086 23.714L21.7289 24.1702C22.0155 25.0995 22.9343 25.75 24.0723 25.75C25.5643 25.75 26.5 24.8883 26.5 23.4775C26.5 22.1511 25.6992 21.281 24.3926 21.281Z" fill="white" fill-opacity="0.5"/>
</svg>
