<svg width="44" height="44" viewBox="0 0 44 44" fill="none" xmlns="http://www.w3.org/2000/svg">
<path fill-rule="evenodd" clip-rule="evenodd" d="M17.4019 16.387C16.8066 15.5304 15.9065 14.2964 14.7014 12.6848L13.0463 13.8608C13.4673 14.4125 13.9392 15.0513 14.4619 15.7773C14.999 16.5032 15.4128 17.0984 15.7032 17.563L17.4019 16.387ZM30.5121 13.5995H18.5779V15.5813H28.5085V21.0169C28.6706 21.0056 28.8343 20.9999 28.9992 20.9999C29.5187 20.9999 30.0249 21.0565 30.5121 21.1639V13.5995ZM25.7695 21.7879H18.9263V28.8221H22.047C22.0154 28.5525 21.9992 28.2781 21.9992 27.9999C21.9992 27.6579 22.0237 27.3217 22.0711 26.9928H20.7992V23.6173H23.5407C24.1465 22.8637 24.9051 22.2383 25.7695 21.7879ZM18.077 17.8244V19.6973H27.3979V17.8244H18.077ZM16.1605 19.5013H12.2188V21.5701H14.157V28.7568C14.157 29.1924 14.1207 29.5408 14.0481 29.8021C13.9755 30.049 13.8376 30.2885 13.6343 30.5208L14.8756 31.9364L18.3383 28.8657L17.8374 26.7097L16.1605 28.2341V19.5013Z" fill="white" fill-opacity="0.5"/>
<g filter="url(#filter0_b_49_3667)">
<path fill-rule="evenodd" clip-rule="evenodd" d="M34 28C34 30.7614 31.7614 33 29 33C26.2386 33 24 30.7614 24 28C24 25.2386 26.2386 23 29 23C31.7614 23 34 25.2386 34 28ZM31.7877 26.1904C32.0416 26.4442 32.0416 26.8558 31.7877 27.1096L28.7544 30.143C28.5005 30.3968 28.089 30.3968 27.8351 30.143C27.8224 30.1303 27.8103 30.1171 27.7989 30.1037C27.774 30.0851 27.7501 30.0645 27.7275 30.0418L26.4904 28.8047C26.2365 28.5509 26.2365 28.1393 26.4904 27.8855C26.7442 27.6317 27.1558 27.6317 27.4096 27.8855L28.2915 28.7674L30.8685 26.1904C31.1223 25.9365 31.5339 25.9365 31.7877 26.1904Z" fill="white" fill-opacity="0.5"/>
</g>
<defs>
<filter id="filter0_b_49_3667" x="15.4063" y="14.4063" width="27.1875" height="27.1875" filterUnits="userSpaceOnUse" color-interpolation-filters="sRGB">
<feFlood flood-opacity="0" result="BackgroundImageFix"/>
<feGaussianBlur in="BackgroundImageFix" stdDeviation="4.29687"/>
<feComposite in2="SourceAlpha" operator="in" result="effect1_backgroundBlur_49_3667"/>
<feBlend mode="normal" in="SourceGraphic" in2="effect1_backgroundBlur_49_3667" result="shape"/>
</filter>
</defs>
</svg>
