<svg width="44" height="44" viewBox="0 0 44 44" fill="none" xmlns="http://www.w3.org/2000/svg">
<path fill-rule="evenodd" clip-rule="evenodd" d="M26.2366 14.2098C26.2013 14.3278 26.2013 14.4727 26.2013 14.7626L26.2013 20.2376C26.1056 20.171 26.0042 20.1008 25.8967 20.0265L19.2664 15.4406C18.0467 14.597 17.4369 14.1752 16.9297 14.1994C16.488 14.2205 16.0782 14.4354 15.8096 14.7866C15.5012 15.19 15.5012 15.9315 15.5012 17.4145L15.5012 26.5862C15.5012 28.0692 15.5012 28.8107 15.8096 29.214C16.0782 29.5653 16.488 29.7802 16.9297 29.8013C17.4369 29.8255 18.0467 29.4037 19.2664 28.56L25.8967 23.9742C26.0042 23.8999 26.1056 23.8297 26.2013 23.7631L26.2013 29.2381C26.2013 29.5279 26.2013 29.6728 26.2366 29.7909C26.3179 30.0627 26.5305 30.2754 26.8024 30.3566C26.9204 30.3919 27.0653 30.3919 27.3552 30.3919C27.645 30.3919 27.7899 30.3919 27.908 30.3566C28.1798 30.2754 28.3924 30.0627 28.4737 29.7909C28.509 29.6728 28.509 29.5279 28.509 29.2381L28.509 14.7626C28.509 14.4727 28.509 14.3278 28.4737 14.2098C28.3924 13.9379 28.1798 13.7253 27.908 13.644C27.7899 13.6087 27.645 13.6087 27.3552 13.6087C27.0653 13.6087 26.9204 13.6087 26.8024 13.644C26.5305 13.7253 26.3179 13.9379 26.2366 14.2098Z" fill="white"/>
</svg>
