<svg width="44" height="44" viewBox="0 0 44 44" fill="none" xmlns="http://www.w3.org/2000/svg">
<path d="M22 12C16.4772 12 12 16.4772 12 22C12 27.5228 16.4772 32 22 32C27.5228 32 32 27.5228 32 22C32 19.1658 30.821 16.6071 28.9266 14.7874" stroke="white" stroke-width="2" stroke-linecap="round"/>
<path fill-rule="evenodd" clip-rule="evenodd" d="M24.0691 10.9363C24.5352 11.2987 24.7682 11.4799 24.8521 11.7002C24.9256 11.8933 24.9256 12.1066 24.8521 12.2997C24.7682 12.52 24.5352 12.7012 24.0691 13.0636L23.1745 13.7593C22.4767 14.3019 22.1278 14.5732 21.8349 14.5707C21.5801 14.5685 21.3399 14.451 21.1818 14.2512C21 14.0215 21 13.5796 21 12.6957V11.3043C21 10.4204 21 9.9784 21.1818 9.74871C21.3399 9.54889 21.5801 9.43144 21.8349 9.42925C22.1278 9.42673 22.4767 9.69803 23.1745 10.2406L24.0691 10.9363Z" fill="white"/>
<path d="M20.4588 25.6317V19H19.2196L17.5 19.887V21.4246L18.9836 20.6558V25.6317H20.4588Z" fill="white"/>
<path d="M24.3926 21.281C24.0639 21.281 23.7267 21.357 23.4401 21.5006L23.5497 20.3432H26.1797V19H22.1672L21.8722 22.8861L23.1366 23.1564C23.3221 22.8016 23.6761 22.6073 24.0723 22.6073C24.6792 22.6073 25.0333 22.9452 25.0333 23.5113C25.0333 24.0688 24.6624 24.4068 24.0723 24.4068C23.6171 24.4068 23.2462 24.1449 23.086 23.714L21.7289 24.1702C22.0155 25.0995 22.9343 25.75 24.0723 25.75C25.5643 25.75 26.5 24.8883 26.5 23.4775C26.5 22.1511 25.6992 21.281 24.3926 21.281Z" fill="white"/>
</svg>
