<svg width="44" height="44" viewBox="0 0 44 44" fill="none" xmlns="http://www.w3.org/2000/svg">
<path fill-rule="evenodd" clip-rule="evenodd" d="M17.8169 14.2095C17.8522 14.3275 17.8522 14.4724 17.8522 14.7622L17.8522 20.2373C17.9478 20.1707 18.0493 20.1005 18.1568 20.0262L24.787 15.4403C26.0067 14.5967 26.6166 14.1749 27.1237 14.1991C27.5654 14.2202 27.9753 14.4351 28.2439 14.7863C28.5523 15.1897 28.5523 15.9312 28.5523 17.4142L28.5523 26.5859C28.5523 28.0689 28.5523 28.8104 28.2439 29.2137C27.9753 29.565 27.5654 29.7799 27.1237 29.8009C26.6166 29.8251 26.0067 29.4033 24.787 28.5597L18.1568 23.9739C18.0493 23.8995 17.9478 23.8294 17.8522 23.7628L17.8522 29.2378C17.8522 29.5276 17.8522 29.6725 17.8169 29.7906C17.7356 30.0624 17.5229 30.2751 17.2511 30.3563C17.1331 30.3916 16.9881 30.3916 16.6983 30.3916C16.4085 30.3916 16.2636 30.3916 16.1455 30.3563C15.8737 30.2751 15.661 30.0624 15.5798 29.7906C15.5445 29.6725 15.5445 29.5276 15.5445 29.2378L15.5445 14.7622C15.5445 14.4724 15.5445 14.3275 15.5798 14.2095C15.661 13.9376 15.8737 13.725 16.1455 13.6437C16.2636 13.6084 16.4085 13.6084 16.6983 13.6084C16.9881 13.6084 17.1331 13.6084 17.2511 13.6437C17.5229 13.725 17.7356 13.9376 17.8169 14.2095Z" fill="white"/>
</svg>
