<svg width="44" height="44" viewBox="0 0 44 44" fill="none" xmlns="http://www.w3.org/2000/svg">
<path fill-rule="evenodd" clip-rule="evenodd" d="M26 14V12.7488C26 12.5958 26.0495 12.4465 26.142 12.3209C26.3917 11.9816 26.885 11.8981 27.2436 12.1344L30.6608 14.3856C30.7377 14.4363 30.8044 14.4994 30.858 14.5722C31.1077 14.9115 31.0195 15.3781 30.6608 15.6144L27.2436 17.8657C27.1109 17.9531 26.9531 18 26.7914 18C26.3543 18 26 17.6648 26 17.2513V16H16C14.3431 16 13 17.3431 13 19C13 19.5523 12.5523 20 12 20C11.4477 20 11 19.5523 11 19C11 16.2386 13.2386 14 16 14H26ZM17 30V31.2513C17 31.6648 16.6457 32 16.2086 32C16.0469 32 15.8891 31.9531 15.7564 31.8657L12.3392 29.6144C11.9805 29.3781 11.8923 28.9115 12.142 28.5722C12.1956 28.4994 12.2623 28.4363 12.3392 28.3856L15.7564 26.1344C16.115 25.8981 16.6083 25.9816 16.858 26.3209C16.9505 26.4465 17 26.5958 17 26.7488V28H27C28.6569 28 30 26.6569 30 25C30 24.4477 30.4477 24 31 24C31.5523 24 32 24.4477 32 25C32 27.7614 29.7614 30 27 30H17Z" fill="white" fill-opacity="0.5"/>
</svg>
