<svg width="44" height="44" viewBox="0 0 44 44" fill="none" xmlns="http://www.w3.org/2000/svg">
<rect x="20" y="14" width="11" height="2" rx="1" fill="white" fill-opacity="0.3"/>
<path fill-rule="evenodd" clip-rule="evenodd" d="M13 12.7488V17.2513C13 17.6648 13.3543 18 13.7914 18C13.9531 18 14.1109 17.9531 14.2436 17.8657L17.6608 15.6144C18.0195 15.3781 18.1077 14.9115 17.858 14.5722C17.8044 14.4994 17.7377 14.4363 17.6608 14.3856L14.2436 12.1344C13.885 11.8981 13.3917 11.9816 13.142 12.3209C13.0495 12.4465 13 12.5958 13 12.7488Z" fill="white" fill-opacity="0.3"/>
<rect x="13" y="21" width="18" height="2" rx="1" fill="white" fill-opacity="0.3"/>
<rect x="13" y="28" width="18" height="2" rx="1" fill="white" fill-opacity="0.3"/>
</svg>
