<svg width="44" height="44" viewBox="0 0 44 44" fill="none" xmlns="http://www.w3.org/2000/svg">
<path d="M12 19V19C12 16.7909 13.7909 15 16 15H28" stroke="white" stroke-width="2" stroke-linecap="round"/>
<path fill-rule="evenodd" clip-rule="evenodd" d="M26 12.7488V17.2513C26 17.6648 26.3543 18 26.7914 18C26.9531 18 27.1109 17.9531 27.2436 17.8657L30.6608 15.6144C31.0195 15.3781 31.1077 14.9115 30.858 14.5722C30.8044 14.4994 30.7377 14.4363 30.6608 14.3856L27.2436 12.1344C26.885 11.8981 26.3917 11.9816 26.142 12.3209C26.0495 12.4465 26 12.5958 26 12.7488Z" fill="white"/>
<path fill-rule="evenodd" clip-rule="evenodd" d="M17 26.7488V31.2513C17 31.6648 16.6457 32 16.2086 32C16.0469 32 15.8891 31.9531 15.7564 31.8657L12.3392 29.6144C11.9805 29.3781 11.8923 28.9115 12.142 28.5722C12.1956 28.4994 12.2623 28.4363 12.3392 28.3856L15.7564 26.1344C16.115 25.8981 16.6083 25.9816 16.858 26.3209C16.9505 26.4465 17 26.5958 17 26.7488Z" fill="white"/>
<path d="M31 25V25C31 27.2091 29.2091 29 27 29H15" stroke="white" stroke-width="2" stroke-linecap="round"/>
<path d="M20.8753 24.8382H22.4861V19H20.8753L19.5 19.9791V21.4154L20.7993 20.501H20.8753V24.8382Z" fill="white"/>
</svg>
