<svg width="44" height="44" viewBox="0 0 44 44" fill="none" xmlns="http://www.w3.org/2000/svg">
<path fill-rule="evenodd" clip-rule="evenodd" d="M29.1308 24.3584C30.3986 23.5779 31.0325 23.1877 31.249 22.6863C31.438 22.2484 31.438 21.7519 31.249 21.3141C31.0325 20.8126 30.3986 20.4224 29.1308 19.642L18.5658 13.1382C17.1866 12.2892 16.4971 11.8647 15.9287 11.9131C15.4332 11.9553 14.9797 12.2087 14.684 12.6085C14.3448 13.0672 14.3448 13.8769 14.3448 15.4964L14.3448 28.504C14.3448 30.1234 14.3448 30.9332 14.684 31.3918C14.9797 31.7917 15.4332 32.045 15.9287 32.0872C16.4971 32.1356 17.1866 31.7111 18.5657 30.8622L29.1308 24.3584Z" fill="white" fill-opacity="0.3"/>
</svg>
