<svg width="44" height="44" viewBox="0 0 44 44" fill="none" xmlns="http://www.w3.org/2000/svg">
<path fill-rule="evenodd" clip-rule="evenodd" d="M26 12.7488V14H16C13.2386 14 11 16.2386 11 19C11 19.5523 11.4477 20 12 20C12.5523 20 13 19.5523 13 19C13 17.3431 14.3431 16 16 16H26V17.2513C26 17.6648 26.3543 18 26.7914 18C26.9531 18 27.1109 17.9531 27.2436 17.8657L30.6608 15.6144C31.0195 15.3781 31.1077 14.9115 30.858 14.5722C30.8044 14.4994 30.7377 14.4363 30.6608 14.3856L27.2436 12.1344C26.885 11.8981 26.3917 11.9816 26.142 12.3209C26.0495 12.4465 26 12.5958 26 12.7488ZM17 31.2513V30H27C29.7614 30 32 27.7614 32 25C32 24.4477 31.5523 24 31 24C30.4477 24 30 24.4477 30 25C30 26.6569 28.6569 28 27 28H17V26.7488C17 26.5958 16.9505 26.4465 16.858 26.3209C16.6083 25.9816 16.115 25.8981 15.7564 26.1344L12.3392 28.3856C12.2623 28.4363 12.1956 28.4994 12.142 28.5722C11.8923 28.9115 11.9805 29.3781 12.3392 29.6144L15.7564 31.8657C15.8891 31.9531 16.0469 32 16.2086 32C16.6457 32 17 31.6648 17 31.2513ZM22.4861 24.8382H20.8753V20.501H20.7993L19.5 21.4154V19.9791L20.8753 19H22.4861V24.8382Z" fill="white" fill-opacity="0.3"/>
</svg>
