<svg width="44" height="44" viewBox="0 0 44 44" fill="none" xmlns="http://www.w3.org/2000/svg">
<path fill-rule="evenodd" clip-rule="evenodd" d="M26 12.7488V14.2255C22.8704 14.9419 20.3005 17.308 19.3901 20.4944L18.6868 22.9561C17.8338 25.9417 15.105 28 12 28C11.4477 28 11 28.4477 11 29C11 29.5523 11.4477 30 12 30C15.998 30 19.5115 27.3497 20.6098 23.5056L21.3132 21.0439C21.9764 18.7226 23.7737 16.9618 26 16.2932V17.2513C26 17.6648 26.3543 18 26.7914 18C26.9531 18 27.1109 17.9531 27.2436 17.8657L30.6608 15.6144C31.0195 15.3781 31.1077 14.9115 30.858 14.5722C30.8044 14.4994 30.7377 14.4363 30.6608 14.3856L27.2436 12.1344C26.885 11.8981 26.3917 11.9816 26.142 12.3209C26.0495 12.4465 26 12.5958 26 12.7488ZM12 14C14.6532 14 17.0931 15.1673 18.7553 17.0761C18.3621 17.6944 18.0279 18.3575 17.7615 19.0586C16.4936 17.1841 14.355 16 12 16C11.4477 16 11 15.5523 11 15C11 14.4477 11.4477 14 12 14ZM26 29.7745C24.1403 29.3488 22.4783 28.3406 21.2447 26.9239C21.6379 26.3056 21.9721 25.6425 22.2385 24.9414C23.1345 26.2661 24.4653 27.2459 26 27.7068V26.7488C26 26.5958 26.0495 26.4465 26.142 26.3209C26.3917 25.9816 26.885 25.8981 27.2436 26.1344L30.6608 28.3856C30.7377 28.4363 30.8044 28.4994 30.858 28.5722C31.1077 28.9115 31.0195 29.3781 30.6608 29.6144L27.2436 31.8657C27.1109 31.9531 26.9531 32 26.7914 32C26.3543 32 26 31.6648 26 31.2513V29.7745Z" fill="white" fill-opacity="0.3"/>
</svg>
