<svg width="44" height="44" viewBox="0 0 44 44" fill="none" xmlns="http://www.w3.org/2000/svg">
<path fill-rule="evenodd" clip-rule="evenodd" d="M29.3333 11H14.6667C12.6416 11 11 12.6416 11 14.6667V29.3333C11 31.3584 12.6416 33 14.6667 33H29.3333C31.3584 33 33 31.3584 33 29.3333V14.6667C33 12.6416 31.3584 11 29.3333 11ZM13 14.6667C13 13.7462 13.7462 13 14.6667 13H29.3333C30.2538 13 31 13.7462 31 14.6667V29.3333C31 30.2538 30.2538 31 29.3333 31H14.6667C13.7462 31 13 30.2538 13 29.3333V14.6667ZM17 16.2C16.5582 16.2 16.2 16.5582 16.2 17V19.5C16.2 19.9418 16.5582 20.3 17 20.3C17.4418 20.3 17.8 19.9418 17.8 19.5V17.8H21.2V25.4H19.8C19.3582 25.4 19 25.7582 19 26.2C19 26.6418 19.3582 27 19.8 27H24.2C24.6418 27 25 26.6418 25 26.2C25 25.7582 24.6418 25.4 24.2 25.4H22.8V17.8H26.2V19.5C26.2 19.9418 26.5582 20.3 27 20.3C27.4418 20.3 27.8 19.9418 27.8 19.5V17C27.8 16.5582 27.4418 16.2 27 16.2H17Z" fill="white" fill-opacity="0.5"/>
</svg>
