<svg width="44" height="44" viewBox="0 0 44 44" fill="none" xmlns="http://www.w3.org/2000/svg">
<path fill-rule="evenodd" clip-rule="evenodd" d="M24.0691 10.9363C24.5352 11.2987 24.7682 11.4799 24.8521 11.7002C24.9256 11.8933 24.9256 12.1066 24.8521 12.2997C24.7682 12.52 24.5352 12.7012 24.0691 13.0636L23.1744 13.7593L23.1744 13.7593C22.4767 14.3019 22.1278 14.5732 21.8349 14.5707C21.5801 14.5685 21.3399 14.451 21.1818 14.2512C21.0265 14.055 21.0039 13.7039 21.0006 13.0549C16.5003 13.5521 13 17.3673 13 22C13 26.9706 17.0294 31 22 31C26.9706 31 31 26.9706 31 22C31 19.4491 29.9401 17.1475 28.2339 15.5086C27.8356 15.126 27.8229 14.4929 28.2055 14.0946C28.5881 13.6963 29.2211 13.6836 29.6194 14.0662C31.7019 16.0666 33 18.8826 33 22C33 28.0751 28.0751 33 22 33C15.9249 33 11 28.0751 11 22C11 16.2619 15.3936 11.55 21.0002 11.0448C21.0019 10.3315 21.0187 9.95473 21.1818 9.74871C21.3399 9.54889 21.5801 9.43144 21.8349 9.42925C22.1278 9.42673 22.4767 9.69803 23.1745 10.2406L24.0691 10.9363ZM20.4588 19V25.6317H18.9836V20.6558L17.5 21.4246V19.887L19.2196 19H20.4588ZM23.4401 21.5006C23.7267 21.357 24.0639 21.281 24.3926 21.281C25.6992 21.281 26.5 22.1511 26.5 23.4775C26.5 24.8883 25.5643 25.75 24.0723 25.75C22.9343 25.75 22.0155 25.0995 21.7289 24.1702L23.086 23.714C23.2462 24.1449 23.6171 24.4068 24.0723 24.4068C24.6624 24.4068 25.0333 24.0688 25.0333 23.5113C25.0333 22.9452 24.6792 22.6073 24.0723 22.6073C23.6761 22.6073 23.3221 22.8016 23.1366 23.1564L21.8722 22.8861L22.1672 19H26.1797V20.3432H23.5497L23.4401 21.5006Z" fill="white" fill-opacity="0.5"/>
</svg>
