<svg width="44" height="44" viewBox="0 0 44 44" fill="none" xmlns="http://www.w3.org/2000/svg">
<path fill-rule="evenodd" clip-rule="evenodd" d="M17.4638 31.7449C17.6124 31.4532 17.6124 31.0713 17.6124 30.3076L17.6124 13.6922C17.6124 12.9285 17.6124 12.5467 17.4638 12.255C17.333 11.9984 17.1244 11.7898 16.8678 11.659C16.5761 11.5104 16.1943 11.5104 15.4306 11.5104L14.9481 11.5104C14.1843 11.5104 13.8025 11.5104 13.5108 11.659C13.2542 11.7898 13.0456 11.9984 12.9149 12.255C12.7662 12.5467 12.7662 12.9285 12.7662 13.6922L12.7662 30.3076C12.7662 31.0713 12.7662 31.4532 12.9149 31.7449C13.0456 32.0015 13.2542 32.2101 13.5108 32.3408C13.8025 32.4894 14.1843 32.4894 14.9481 32.4894L15.4306 32.4894C16.1943 32.4894 16.5761 32.4894 16.8678 32.3408C17.1244 32.2101 17.333 32.0015 17.4638 31.7449ZM31.0936 31.7449C31.2422 31.4532 31.2422 31.0713 31.2422 30.3076L31.2422 13.6922C31.2422 12.9285 31.2422 12.5467 31.0936 12.255C30.9628 11.9984 30.7542 11.7898 30.4976 11.659C30.2059 11.5104 29.8241 11.5104 29.0604 11.5104L28.5779 11.5104C27.8142 11.5104 27.4323 11.5104 27.1406 11.659C26.884 11.7898 26.6754 11.9984 26.5447 12.255C26.396 12.5467 26.396 12.9285 26.396 13.6922L26.396 30.3076C26.396 31.0713 26.396 31.4532 26.5447 31.7449C26.6754 32.0015 26.884 32.2101 27.1406 32.3408C27.4323 32.4894 27.8142 32.4894 28.5779 32.4894L29.0604 32.4894C29.8241 32.4894 30.2059 32.4894 30.4976 32.3408C30.7542 32.2101 30.9628 32.0015 31.0936 31.7449Z" fill="white"/>
</svg>
