<svg width="44" height="44" viewBox="0 0 44 44" fill="none" xmlns="http://www.w3.org/2000/svg">
<path fill-rule="evenodd" clip-rule="evenodd" d="M13 14C13 13.4477 13.4477 13 14 13H30C30.5523 13 31 13.4477 31 14V18.5C31 19.0523 30.5523 19.5 30 19.5C29.4477 19.5 29 19.0523 29 18.5V15H23L23 29H26C26.5523 29 27 29.4477 27 30C27 30.5523 26.5523 31 26 31H18C17.4477 31 17 30.5523 17 30C17 29.4477 17.4477 29 18 29H21L21 15H15V18.5C15 19.0523 14.5523 19.5 14 19.5C13.4477 19.5 13 19.0523 13 18.5V14Z" fill="white" fill-opacity="0.3"/>
</svg>
