<svg width="44" height="44" viewBox="0 0 44 44" fill="none" xmlns="http://www.w3.org/2000/svg">
<path d="M22 12C27.5228 12 32 16.4772 32 22C32 27.5228 27.5228 32 22 32C16.4772 32 12 27.5228 12 22C12 19.1658 13.179 16.6071 15.0734 14.7874" stroke="white" stroke-width="2" stroke-linecap="round"/>
<path d="M20.4588 25.6317V19H19.2196L17.5 19.887V21.4246L18.9836 20.6558V25.6317H20.4588Z" fill="white"/>
<path d="M24.3926 21.281C24.0639 21.281 23.7267 21.357 23.4401 21.5006L23.5497 20.3432H26.1797V19H22.1672L21.8722 22.8861L23.1366 23.1564C23.3221 22.8016 23.6761 22.6073 24.0723 22.6073C24.6792 22.6073 25.0333 22.9452 25.0333 23.5113C25.0333 24.0688 24.6624 24.4068 24.0723 24.4068C23.6171 24.4068 23.2462 24.1449 23.086 23.714L21.7289 24.1702C22.0155 25.0995 22.9343 25.75 24.0723 25.75C25.5643 25.75 26.5 24.8883 26.5 23.4775C26.5 22.1511 25.6992 21.281 24.3926 21.281Z" fill="white"/>
<path fill-rule="evenodd" clip-rule="evenodd" d="M19.9309 10.9363C19.4648 11.2987 19.2318 11.4799 19.1479 11.7002C19.0744 11.8933 19.0744 12.1066 19.1479 12.2997C19.2318 12.52 19.4648 12.7012 19.9309 13.0636L20.8255 13.7593C21.5233 14.3019 21.8722 14.5732 22.1651 14.5707C22.4199 14.5685 22.6601 14.451 22.8182 14.2512C23 14.0215 23 13.5796 23 12.6957V11.3043C23 10.4204 23 9.9784 22.8182 9.74871C22.6601 9.54889 22.4199 9.43144 22.1651 9.42925C21.8722 9.42673 21.5233 9.69803 20.8255 10.2406L19.9309 10.9363Z" fill="white"/>
</svg>
