<svg width="44" height="44" viewBox="0 0 44 44" fill="none" xmlns="http://www.w3.org/2000/svg">
<path fill-rule="evenodd" clip-rule="evenodd" d="M22.3722 11.9412C19.528 11.9412 17.2224 14.2468 17.2224 17.0909V19.5454H16.6364C15.7326 19.5454 15 20.278 15 21.1818V29.3636C15 30.2673 15.7326 31 16.6364 31H28.0909C28.9946 31 29.7273 30.2673 29.7273 29.3636V21.1818C29.7273 20.278 28.9946 19.5454 28.0909 19.5454H19.3401V17.0909C19.3401 15.4163 20.6976 14.0588 22.3722 14.0588C24.0467 14.0588 25.4042 15.4163 25.4042 17.0909V17.2353H27.5219V17.0909C27.5219 14.2468 25.2163 11.9412 22.3722 11.9412Z" fill="white" fill-opacity="0.3"/>
</svg>
